SplineFontDB: 3.0
FontName: Pollon
FullName: Pollon
FamilyName: Pollon
Weight: Normal
Copyright: Copyright (c) 2011 by . All rights reserved.
FONDName: Pollon
ItalicAngle: 0
UnderlinePosition: -246
UnderlineWidth: 102
Ascent: 1638
Descent: 410
UFOAscent: 1882
UFODescent: 1
LayerCount: 2
Layer: 0 0 "Back"  1
Layer: 1 0 "Fore"  0
NeedsXUIDChange: 1
FSType: 1
OS2Version: 0
OS2_WeightWidthSlopeOnly: 0
OS2_UseTypoMetrics: 0
CreationTime: 1315864670
ModificationTime: 1315865305
PfmFamily: 0
TTFWeight: 400
TTFWidth: 0
LineGap: 0
VLineGap: 0
Panose: 2 6 6 6 1 1 2 4 1 3
OS2TypoAscent: 7285
OS2TypoAOffset: 0
OS2TypoDescent: 182
OS2TypoDOffset: 0
OS2TypoLinegap: 997
OS2WinAscent: 7520
OS2WinAOffset: 0
OS2WinDescent: -2185
OS2WinDOffset: 0
HheadAscent: 1938
HheadAOffset: 0
HheadDescent: -563
HheadDOffset: 0
OS2SubXSize: 5437
OS2SubYSize: 4985
OS2SubXOff: 0
OS2SubYOff: -340
OS2SupXSize: 5437
OS2SupYSize: 4985
OS2SupXOff: 0
OS2SupYOff: 2490
OS2StrikeYSize: 401
OS2StrikeYPos: 2261
OS2FamilyClass: 1033
OS2Vendor: 'pyrs'
OS2CodePages: 00000000.00000000
OS2UnicodeRanges: 00000000.00000000.00000000.00000000
Lookup: 258 0 0 "'kern' Horizontal Kerning lookup 0"  {"'kern' Horizontal Kerning lookup 0 subtable"  } ['kern' ('DFLT' <'dflt' > ) ]
Lookup: 258 0 0 "'kern' Horizontal Kerning in Latin lookup 0"  {"'kern' Horizontal Kerning in Latin lookup 0 subtable"  } ['kern' ('latn' <'dflt' > ) ]
DEI: 91125
LangName: 1033 "" "" "" "" "" "" "" "Pollon is a trademark of ." "" "" "Copyright (c) 2011 by . All rights reserved." "" "" "" "" "" "" "" "Pollon" 
PickledData: "(dp1
S'com.superpolator.editor.generateInfo'
p2
S'Generated with LTR Superpolator version 100119_1225'
p3
sS'org.robofab.glyphOrder'
p4
(S'NULL'
S'CR'
S'space'
S'quotedbl'
S'quotesingle'
S'plus'
S'hyphen'
S'slash'
S'seven'
S'less'
S'equal'
S'greater'
S'A'
S'B'
S'C'
S'D'
S'E'
S'F'
S'G'
S'H'
S'I'
S'J'
S'K'
S'L'
S'M'
S'N'
S'O'
S'P'
S'R'
S'S'
S'T'
S'U'
S'V'
S'W'
S'X'
S'Y'
S'Z'
S'bracketleft'
S'backslash'
S'bracketright'

StartChar: A
Encoding: 65 65 0
Width: 1301
VWidth: 0
Flags: HW
PickledData: "(dp1
S'org.robofab.postScriptHintData'
p2
(dp3
s."
LayerCount: 2
Fore
SplineSet
840 541 m 1
 651 1176 l 1
 645 1176 l 1
 457 541 l 1
 840 541 l 1
1209 144 m 2
 1214 129 1216 115 1216 102 c 0
 1216 39 1161 0 1103 0 c 0
 1054 0 1004 27 982 89 c 2
 892 340 l 1
 404 340 l 1
 316 89 l 2
 294 27 244 0 195 0 c 0
 137 0 82 39 82 102 c 0
 82 115 84 129 89 144 c 2
 471 1288 l 2
 494 1357 572 1391 651 1391 c 0
 729 1391 809 1357 832 1288 c 2
 1209 144 l 2
EndSplineSet
EndChar

StartChar: AE
Encoding: 198 198 1
Width: 1438
VWidth: 0
Flags: HW
PickledData: "(dp1
S'org.robofab.postScriptHintData'
p2
(dp3
s."
LayerCount: 2
Fore
SplineSet
1194 84 m 1
 1194 101 l 1
 616 101 l 1
 600 169 l 1
 116 169 l 1
 116 670 l 1
 390 670 l 1
 871 1152 l 1
 1338 1152 l 1
 1338 940 l 1
 1065 940 l 1
 1065 643 l 1
 1233 643 l 1
 1233 409 l 1
 1080 409 l 1
 1080 84 l 1
 1194 84 l 1
421 471 m 1
 576 755 l 1
 690 1076 l 1
 690 793 l 1
 421 471 l 1
EndSplineSet
EndChar

StartChar: B
Encoding: 66 66 2
Width: 1270
VWidth: 0
Flags: HW
PickledData: "(dp1
S'org.robofab.postScriptHintData'
p2
(dp3
s."
LayerCount: 2
Fore
SplineSet
150 0 m 1
 150 1282 l 1
 845 1282 l 2
 1039 1282 1128 1207 1128 1010 c 1
 1128 1010 1126 865 1116 843 c 1
 1105 756 1054 707 951 691 c 1
 1122 663 1140 526 1140 348 c 0
 1140 124 1056 0 808 0 c 2
 150 0 l 1
891 324 m 2
 891 324 891 403 891 459 c 0
 891 557 860 594 778 594 c 2
 397 594 l 1
 397 203 l 1
 404 203 763 202 766 202 c 0
 855 202 891 236 891 324 c 2
876 1011 m 2
 876 1072 851 1097 782 1097 c 2
 397 1097 l 1
 397 779 l 1
 781 779 l 2
 857 779 876 820 876 883 c 2
 876 1011 l 2
EndSplineSet
EndChar

StartChar: C
Encoding: 67 67 3
Width: 1274
VWidth: 0
Flags: HW
PickledData: "(dp1
S'org.robofab.postScriptHintData'
p2
(dp3
s."
LayerCount: 2
Fore
SplineSet
1136 506 m 1
 1136 320 l 2
 1136 92 1038 -7 814 -7 c 2
 814 -7 454 -7 453 -7 c 0
 243 -7 131 98 131 321 c 2
 131 944 l 2
 131 1184 216 1287 456 1287 c 0
 458 1287 823 1287 825 1287 c 0
 1029 1286 1132 1202 1132 988 c 2
 1132 812 l 1
 884 793 l 1
 884 945 l 2
 884 1064 880 1069 636 1069 c 0
 382 1069 380 1063 380 948 c 2
 380 323 l 2
 380 214 384 208 636 208 c 0
 879 208 884 211 884 323 c 2
 884 527 l 1
 1136 506 l 1
EndSplineSet
EndChar

StartChar: D
Encoding: 68 68 7
Width: 1349
VWidth: 0
Flags: HW
PickledData: "(dp1
S'org.robofab.postScriptHintData'
p2
(dp3
s."
LayerCount: 2
Fore
SplineSet
150 1282 m 1
 691 1282 l 2
 990 1282 1213 1264 1213 888 c 0
 1213 758 1214 609 1214 407 c 0
 1214 20 992 0 690 0 c 2
 150 0 l 1
 150 1282 l 1
402 208 m 1
 403 208 680 207 683 207 c 0
 909 207 962 210 962 395 c 0
 962 398 962 877 962 881 c 0
 959 1079 910 1081 680 1081 c 0
 679 1081 404 1080 402 1080 c 1
 402 208 l 1
EndSplineSet
EndChar

StartChar: E
Encoding: 69 69 8
Width: 1165
VWidth: 0
Flags: HW
PickledData: "(dp1
S'org.robofab.postScriptHintData'
p2
(dp3
s."
LayerCount: 2
Fore
SplineSet
150 0 m 1
 150 1282 l 1
 1037 1282 l 1
 1037 1071 l 1
 403 1071 l 1
 403 769 l 1
 841 769 l 1
 841 562 l 1
 403 562 l 1
 403 214 l 1
 1051 214 l 1
 1051 0 l 1
 150 0 l 1
EndSplineSet
EndChar

StartChar: F
Encoding: 70 70 9
Width: 1112
VWidth: 0
Flags: HW
PickledData: "(dp1
S'org.robofab.postScriptHintData'
p2
(dp3
s."
LayerCount: 2
Fore
SplineSet
147 1282 m 1
 1027 1282 l 1
 1027 1069 l 1
 399 1069 l 1
 399 761 l 1
 813 761 l 1
 813 551 l 1
 399 551 l 1
 399 121 l 2
 399 40 336 0 273 0 c 0
 210 0 147 40 147 121 c 2
 147 1282 l 1
EndSplineSet
EndChar

StartChar: G
Encoding: 71 71 10
Width: 1476
VWidth: 0
Flags: W
PickledData: "(dp1
S'org.robofab.postScriptHintData'
p2
(dp3
s."
HStem: -23 187<586.956 1113.68> 534 181<831 1119> 1076 195<586.956 1118.27>
VStem: 94 244<415.58 823.856> 1119 226<189.807 534>
LayerCount: 2
Back
SplineSet
843 -7 m 4
 842 -7 457 -7 456 -7 c 0
 247 -6 141 100 141 331 c 2
 141 948 l 2
 141 1199 244 1287 467 1287 c 0
 468 1287 858 1287 859 1287 c 0
 1080 1286 1169 1192 1170 974 c 0
 1170 971 1170 869 1170 866 c 1
 922 847 l 1
 922 950 l 2
 922 1070 916 1070 666 1070 c 0
 396 1070 391 1066 391 937 c 2
 391 329 l 2
 391 215 398 208 666 208 c 4
 920 208 922 214 922 330 c 6
 922 534 l 5
 634 534 l 5
 634 715 l 5
 1173 715 l 5
 1173 356 l 5
 1155 356 l 5
 1148 290 l 5
 1140 82 1050 -7 843 -7 c 4
EndSplineSet
Fore
SplineSet
1345 61 m 1
 1344.28222656 60.03515625 1089.46972656 -23 792 -23 c 0
 326.666992188 -23 94 301 94 625 c 0
 94 947 326.666992188 1271 792 1271 c 0
 1016.85058594 1271 1261.5 1185.59960938 1261.5 1185.59960938 c 0
 1221.5 1004.59960938 l 1
 1221.5 1004.59960938 1009.88476562 1076 792 1076 c 0
 489.681640625 1076 338 850 338 624 c 0
 338 394 489.681640625 164 792 164 c 0
 957.88671875 164 1119 197.599609375 1119 197.599609375 c 1
 1119 534 l 1
 831 534 l 1
 831 715 l 1
 1342 715 l 1
 1345 61 l 1
EndSplineSet
EndChar

StartChar: H
Encoding: 72 72 12
Width: 1331
VWidth: 0
Flags: HW
PickledData: "(dp1
S'org.robofab.postScriptHintData'
p2
(dp3
s."
LayerCount: 2
Fore
SplineSet
375 765 m 1
 947 765 l 1
 947 578 l 1
 375 578 l 1
 375 765 l 1
143 1152 m 2
 143 1231 203 1271 264 1271 c 0
 324 1271 385 1231 385 1152 c 2
 385 119 l 2
 385 40 324 0 264 0 c 0
 203 0 143 40 143 119 c 2
 143 1152 l 2
938 1152 m 2
 938 1231 998 1271 1059 1271 c 0
 1119 1271 1180 1231 1180 1152 c 2
 1180 119 l 2
 1180 40 1119 0 1059 0 c 0
 998 0 938 40 938 119 c 2
 938 1152 l 2
EndSplineSet
EndChar

StartChar: I
Encoding: 73 73 13
Width: 536
VWidth: 0
Flags: HW
PickledData: "(dp1
S'org.robofab.postScriptHintData'
p2
(dp3
s."
LayerCount: 2
Fore
SplineSet
143 1152 m 2
 143 1231 203 1271 264 1271 c 0
 324 1271 385 1231 385 1152 c 2
 385 119 l 2
 385 40 324 0 264 0 c 0
 203 0 143 40 143 119 c 2
 143 1152 l 2
EndSplineSet
EndChar

StartChar: J
Encoding: 74 74 15
Width: 1158
VWidth: 0
Flags: HW
PickledData: "(dp1
S'org.robofab.postScriptHintData'
p2
(dp3
s."
LayerCount: 2
Fore
SplineSet
435 -7 m 0
 228 -7 112 78 112 293 c 2
 112 583 l 1
 359 604 l 1
 359 299 l 2
 359 219 362 214 556 214 c 0
 750 214 754 219 754 304 c 0
 754 311 753 1282 753 1282 c 1
 1005 1282 l 1
 1005 313 l 2
 1005 95 902 -4 689 -7 c 0
 687 -7 438 -7 435 -7 c 0
EndSplineSet
EndChar

StartChar: K
Encoding: 75 75 16
Width: 1251
VWidth: 0
Flags: HW
PickledData: "(dp1
S'org.robofab.postScriptHintData'
p2
(dp3
s."
LayerCount: 2
Fore
SplineSet
150 0 m 1
 150 1282 l 1
 400 1282 l 1
 400 752 l 1
 850 1282 l 1
 1149 1282 l 1
 621 682 l 1
 1214 0 l 1
 890 0 l 1
 400 600 l 1
 400 0 l 1
 150 0 l 1
EndSplineSet
EndChar

StartChar: L
Encoding: 76 76 17
Width: 1116
VWidth: 0
Flags: HW
PickledData: "(dp1
S'org.robofab.postScriptHintData'
p2
(dp3
s."
LayerCount: 2
Fore
SplineSet
150 0 m 1
 150 1282 l 1
 401 1282 l 1
 401 216 l 1
 1017 216 l 1
 1017 0 l 1
 150 0 l 1
EndSplineSet
EndChar

StartChar: M
Encoding: 77 77 18
Width: 1926
VWidth: 0
Flags: HW
PickledData: "(dp1
S'org.robofab.postScriptHintData'
p2
(dp3
s."
LayerCount: 2
Fore
SplineSet
958 -25 m 2
 1019 -25 1079 15 1079 94 c 2
 1079 794 l 2
 1079 997 1163 1075 1329 1075 c 0
 1475 1075 1545 993 1545 808 c 2
 1545 94 l 2
 1545 15 1606 -25 1666 -25 c 0
 1727 -25 1787 15 1787 94 c 2
 1787 791 l 2
 1787 1200 1550 1272 1329 1272 c 0
 1184 1272 1030 1216 959 1072 c 1
 888 1216 734 1272 589 1272 c 0
 368 1272 131 1200 131 791 c 2
 131 94 l 2
 131 15 191 -25 252 -25 c 0
 312 -25 373 15 373 94 c 2
 373 808 l 2
 373 993 443 1075 589 1075 c 0
 755 1075 839 997 839 794 c 2
 839 94 l 2
 839 15 899 -25 960 -25 c 2
 958 -25 l 2
EndSplineSet
EndChar

StartChar: N
Encoding: 78 78 19
Width: 1337
VWidth: 0
Flags: HW
PickledData: "(dp1
S'org.robofab.postScriptHintData'
p2
(dp3
s."
LayerCount: 2
Fore
SplineSet
1184 128 m 2
 1184 49 1142 2 1087 2 c 0
 1048 2 1002 26 961 80 c 2
 355 888 l 1
 355 121 l 2
 355 41 302 0 249 0 c 0
 196 0 143 41 143 121 c 2
 143 1148 l 2
 143 1231 199 1282 264 1282 c 0
 304 1282 348 1262 384 1218 c 1
 976 419 l 1
 976 1176 l 2
 976 1245 1028 1281 1080 1281 c 0
 1132 1281 1184 1246 1184 1176 c 2
 1184 128 l 2
EndSplineSet
EndChar

StartChar: O
Encoding: 79 79 21
Width: 1563
VWidth: 0
Flags: W
PickledData: "(dp1
S'org.robofab.postScriptHintData'
p2
(dp3
s."
HStem: -24 196<575.44 970.56> 1076 195<575.44 970.56>
VStem: 95 244<416.656 830.606> 1207 244<416.656 830.606>
LayerCount: 2
Fore
SplineSet
773 -24 m 4
 321 -24 95 300 95 623 c 4
 95 947 321 1271 773 1271 c 4
 1225 1271 1451 947 1451 623 c 4
 1451 300 1225 -24 773 -24 c 4
773 1076 m 4
 484 1076 339 850 339 624 c 4
 339 398 484 172 773 172 c 4
 1062 172 1207 398 1207 624 c 4
 1207 850 1062 1076 773 1076 c 4
EndSplineSet
EndChar

StartChar: P
Encoding: 80 80 22
Width: 1289
VWidth: 0
Flags: HW
PickledData: "(dp1
S'org.robofab.postScriptHintData'
p2
(dp3
s."
LayerCount: 2
Fore
SplineSet
147 1352 m 1
 384 1352 l 1
 384 118 l 2
 384 -38 147 -39 147 118 c 2
 147 1352 l 1
384 745 m 1
 720 745 l 2
 877 745 939 801 939 955 c 0
 939 1112 869 1167 728 1167 c 2
 384 1167 l 1
 384 1352 l 1
 662 1352 l 2
 1009 1352 1176 1264 1176 952 c 1
 1174 669 1036 564 672 564 c 2
 384 564 l 1
 384 745 l 1
EndSplineSet
EndChar

StartChar: R
Encoding: 82 82 23
Width: 1260
VWidth: 0
Flags: HW
PickledData: "(dp1
S'org.robofab.postScriptHintData'
p2
(dp3
s."
LayerCount: 2
Fore
SplineSet
150 1282 m 1
 871 1282 l 2
 1140 1282 1136 1116 1136 840 c 0
 1136 658 1027 602 861 587 c 1
 876 585 944 467 944 456 c 0
 944 424 1184 17 1184 0 c 1
 888 0 l 1
 692 409 l 1
 692 419 618 543 609 543 c 0
 608 543 404 543 402 543 c 1
 402 543 402 59 402 0 c 1
 150 0 l 1
 150 1282 l 1
403 739 m 1
 792 739 l 2
 890 739 887 799 887 954 c 0
 887 1053 860 1079 762 1079 c 2
 403 1079 l 1
 403 739 l 1
EndSplineSet
EndChar

StartChar: S
Encoding: 83 83 24
Width: 1273
VWidth: 0
Flags: HW
PickledData: "(dp1
S'org.robofab.postScriptHintData'
p2
(dp3
s."
LayerCount: 2
Fore
SplineSet
386 348 m 2
 386 238 390 231 617 231 c 0
 892 231 895 237 895 351 c 0
 895 485 889 491 703 529 c 2
 415 587 l 1
 169 632 116 703 116 959 c 0
 116 1217 219 1291 452 1291 c 2
 794 1291 l 2
 1086 1291 1121 1220 1121 943 c 1
 877 918 l 1
 877 1003 l 2
 877 1053 873 1057 643 1057 c 0
 379 1057 375 1053 375 953 c 0
 375 859 377 858 595 819 c 1
 859 766 l 1
 1097 725 1144 688 1144 340 c 0
 1144 116 1078 -7 829 -7 c 2
 453 -7 l 2
 189 -7 128 88 128 330 c 2
 128 412 l 1
 386 434 l 1
 386 348 l 2
EndSplineSet
EndChar

StartChar: T
Encoding: 84 84 26
Width: 1141
VWidth: 0
Flags: HW
PickledData: "(dp1
S'org.robofab.postScriptHintData'
p2
(dp3
s."
LayerCount: 2
Fore
SplineSet
438 1070 m 1
 72 1070 l 1
 72 1282 l 1
 1059 1282 l 1
 1059 1070 l 1
 690 1070 l 1
 690 121 l 2
 690 40 627 0 564 0 c 0
 501 0 438 40 438 121 c 2
 438 1070 l 1
EndSplineSet
EndChar

StartChar: U
Encoding: 85 85 27
Width: 1314
VWidth: 0
Flags: HW
PickledData: "(dp1
S'org.robofab.postScriptHintData'
p2
(dp3
s."
LayerCount: 2
Fore
SplineSet
1166 385 m 2
 1166 95 1076 -25 647 -25 c 0
 223 -25 136 99 136 385 c 2
 136 1152 l 2
 136 1231 196 1271 257 1271 c 0
 317 1271 378 1231 378 1152 c 2
 378 398 l 2
 378 253 383 171 651 171 c 0
 921 171 924 266 924 398 c 2
 924 1152 l 2
 924 1231 984 1271 1045 1271 c 0
 1105 1271 1166 1231 1166 1152 c 2
 1166 385 l 2
EndSplineSet
EndChar

StartChar: V
Encoding: 86 86 28
Width: 1230
VWidth: 0
Flags: HW
PickledData: "(dp1
S'org.robofab.postScriptHintData'
p2
(dp3
s."
LayerCount: 2
Fore
SplineSet
473 0 m 1
 48 1282 l 1
 307 1282 l 1
 619 328 l 1
 922 1282 l 1
 1172 1282 l 1
 761 0 l 1
 473 0 l 1
EndSplineSet
EndChar

StartChar: W
Encoding: 87 87 29
Width: 1660
VWidth: 0
Flags: HW
PickledData: "(dp1
S'org.robofab.postScriptHintData'
p2
(dp3
s."
LayerCount: 2
Fore
SplineSet
358 0 m 1
 56 1282 l 1
 305 1282 l 1
 511 373 l 1
 733 1282 l 1
 934 1282 l 1
 1148 373 l 1
 1355 1282 l 1
 1593 1282 l 1
 1290 0 l 1
 1037 0 l 1
 830 786 l 1
 619 0 l 1
 358 0 l 1
EndSplineSet
EndChar

StartChar: X
Encoding: 88 88 30
Width: 1242
VWidth: 0
Flags: HW
PickledData: "(dp1
S'org.robofab.postScriptHintData'
p2
(dp3
s."
LayerCount: 2
Fore
SplineSet
60 0 m 1
 436 671 l 1
 72 1282 l 1
 364 1282 l 1
 616 822 l 1
 852 1282 l 1
 1125 1282 l 1
 792 681 l 1
 1200 0 l 1
 903 0 l 1
 613 524 l 1
 340 0 l 1
 60 0 l 1
EndSplineSet
EndChar

StartChar: Y
Encoding: 89 89 31
Width: 1186
VWidth: 0
Flags: HW
PickledData: "(dp1
S'org.robofab.postScriptHintData'
p2
(dp3
s."
LayerCount: 2
Fore
SplineSet
469 0 m 1
 469 487 l 1
 40 1282 l 1
 314 1282 l 1
 594 783 l 1
 864 1282 l 1
 1136 1282 l 1
 710 490 l 1
 710 0 l 1
 469 0 l 1
EndSplineSet
EndChar

StartChar: Z
Encoding: 90 90 33
Width: 1164
VWidth: 0
Flags: HW
PickledData: "(dp1
S'org.robofab.postScriptHintData'
p2
(dp3
s."
LayerCount: 2
Fore
SplineSet
96 0 m 1
 96 170 l 1
 727 1069 l 1
 152 1069 l 1
 152 1282 l 1
 1055 1282 l 1
 1055 1123 l 1
 412 214 l 1
 1047 214 l 1
 1047 0 l 1
 96 0 l 1
EndSplineSet
EndChar

StartChar: a
Encoding: 97 97 34
Width: 1186
VWidth: 0
Flags: HW
PickledData: "(dp1
S'org.robofab.postScriptHintData'
p2
(dp3
s."
LayerCount: 2
Fore
SplineSet
107 282 m 0
 107 513 189 590 379 601 c 1
 384 603 792 608 810 614 c 1
 808 742 822 854 783 877 c 0
 756 893 704 895 599 895 c 0
 390 895 387 891 387 791 c 2
 387 709 l 1
 151 729 l 1
 151 731 151 782 151 784 c 0
 151 1090 309 1093 743 1093 c 0
 933 1093 1044 1000 1044 789 c 2
 1044 0 l 1
 846 0 l 1
 831 90 l 1
 755 37 652 -7 514 -7 c 0
 320 -7 242 8 198 47 c 0
 146 92 107 166 107 282 c 0
342 307 m 0
 342 188 345 177 572 177 c 0
 732 177 810 212 810 217 c 2
 810 449 l 1
 802 446 570 442 567 438 c 1
 353 430 342 402 342 307 c 0
EndSplineSet
EndChar

StartChar: acute
Encoding: 180 180 35
Width: 674
VWidth: 0
Flags: HW
PickledData: "(dp1
S'org.robofab.postScriptHintData'
p2
(dp3
s."
LayerCount: 2
Fore
SplineSet
138 1220 m 1
 259 1516 l 1
 562 1608 l 1
 400 1260 l 1
 138 1220 l 1
EndSplineSet
EndChar

StartChar: apple
Encoding: 61440 61440 36
Width: 1565
VWidth: 0
Flags: HW
PickledData: "(dp1
S'org.robofab.postScriptHintData'
p2
(dp3
s."
LayerCount: 2
Fore
SplineSet
831 1216 m 1
 830 1224 829 1233 829 1253 c 0
 829 1418 976 1581 1160 1614 c 1
 1161 1601 1162 1587 1162 1552 c 0
 1162 1379 985 1214 855 1214 c 2
 847 1214 l 2
 843 1214 836 1216 831 1216 c 1
1500 403 m 1
 1347 70 1243 -35 1091 -35 c 0
 1034 -35 883 31 837 31 c 0
 787 31 623 -35 579 -35 c 0
 339 -35 108 458 108 737 c 0
 108 1028 294 1231 556 1231 c 0
 638 1231 793 1163 835 1163 c 0
 872 1163 1033 1231 1109 1231 c 0
 1257 1231 1372 1180 1468 1069 c 1
 1332 982 1267 877 1267 741 c 0
 1267 590 1349 471 1500 403 c 1
EndSplineSet
EndChar

StartChar: asciicircum
Encoding: 94 94 37
Width: 1249
VWidth: 0
Flags: HW
PickledData: "(dp1
S'org.robofab.postScriptHintData'
p2
(dp3
s."
LayerCount: 2
Fore
SplineSet
756 1415 m 1
 1164 703 l 1
 930 703 l 1
 630 1218 l 1
 328 703 l 1
 93 703 l 1
 503 1415 l 1
 756 1415 l 1
EndSplineSet
EndChar

StartChar: b
Encoding: 98 98 38
Width: 1207
VWidth: 0
Flags: HW
PickledData: "(dp1
S'org.robofab.postScriptHintData'
p2
(dp3
s."
LayerCount: 2
Fore
SplineSet
385 40 m 1
 385 40 385 13 385 0 c 1
 150 0 l 1
 150 1304 l 1
 385 1304 l 1
 385 1007 l 1
 470 1054 581 1093 698 1093 c 0
 962 1093 1078 995 1078 709 c 2
 1078 341 l 2
 1078 117 964 -2 789 -2 c 0
 777 -2 390 25 385 40 c 1
385 210 m 2
 385 191 607 187 615 187 c 0
 841 187 843 214 843 349 c 2
 843 679 l 2
 843 890 790 894 668 894 c 0
 552 894 385 859 385 844 c 2
 385 210 l 2
EndSplineSet
EndChar

StartChar: backslash
Encoding: 92 92 39
Width: 467
VWidth: 0
Flags: HW
PickledData: "(dp1
S'org.robofab.postScriptHintData'
p2
(dp3
s."
LayerCount: 2
Fore
SplineSet
126 631 m 1
 262 724 l 1
 356 724 l 1
 219 631 l 1
 126 631 l 1
EndSplineSet
EndChar

StartChar: bar
Encoding: 124 124 40
Width: 422
VWidth: 0
Flags: HW
PickledData: "(dp1
S'org.robofab.postScriptHintData'
p2
(dp3
s."
LayerCount: 2
Fore
SplineSet
304 872 m 1
 170 -315 l 1
 107 428 l 1
 242 1614 l 1
 304 872 l 1
EndSplineSet
EndChar

StartChar: bracketleft
Encoding: 91 91 41
Width: 434
VWidth: 0
Flags: HW
PickledData: "(dp1
S'org.robofab.postScriptHintData'
p2
(dp3
s."
LayerCount: 2
Fore
SplineSet
153 651 m 1
 153 1184 l 1
 300 1184 l 1
 300 684 l 1
 237 684 l 1
 237 47 l 1
 153 47 l 1
 153 651 l 1
EndSplineSet
EndChar

StartChar: bracketright
Encoding: 93 93 42
Width: 575
VWidth: 0
Flags: HW
PickledData: "(dp1
S'org.robofab.postScriptHintData'
p2
(dp3
s."
LayerCount: 2
Fore
SplineSet
185 532 m 1
 100 598 l 1
 248 717 l 1
 480 1236 l 1
 333 566 l 1
 100 631 l 1
 331 750 l 1
 416 99 l 1
 185 532 l 1
EndSplineSet
EndChar

StartChar: brokenbar
Encoding: 166 166 44
Width: 500
VWidth: 0
Flags: HW
PickledData: "(dp1
S'org.robofab.postScriptHintData'
p2
(dp3
s."
LayerCount: 2
Fore
SplineSet
348 944 m 1
 348 185 l 1
 151 185 l 1
 151 944 l 1
 348 944 l 1
348 1114 m 1
 348 355 l 1
 151 355 l 1
 151 1114 l 1
 348 1114 l 1
EndSplineSet
EndChar

StartChar: c
Encoding: 99 99 45
Width: 1185
VWidth: 0
Flags: HW
PickledData: "(dp1
S'org.robofab.postScriptHintData'
p2
(dp3
s."
LayerCount: 2
Fore
SplineSet
1056 299 m 2
 1056 99 974 0 776 -4 c 1
 769 -6 600 -7 593 -7 c 0
 379 -7 272 -7 196 75 c 0
 146 128 124 209 124 313 c 2
 124 313 124 722 124 760 c 0
 124 986 194 1085 406 1089 c 1
 413 1092 586 1093 596 1093 c 0
 802 1093 908 1095 981 1027 c 0
 1029 982 1054 911 1054 811 c 2
 1054 693 l 1
 819 675 l 1
 819 780 l 2
 819 889 817 894 589 894 c 0
 362 894 358 889 358 779 c 2
 358 300 l 2
 358 199 361 191 588 191 c 0
 812 191 819 193 819 300 c 2
 819 441 l 1
 1056 421 l 1
 1056 299 l 2
EndSplineSet
EndChar

StartChar: caron
Encoding: 711 711 47
Width: 649
VWidth: 0
Flags: HW
PickledData: "(dp1
S'org.robofab.postScriptHintData'
p2
(dp3
s."
LayerCount: 2
Fore
SplineSet
261 1438 m 1
 151 1438 l 1
 154 1466 l 1
 408 1608 l 1
 506 1488 l 1
 428 1406 l 1
 476 1406 l 1
 261 1438 l 1
EndSplineSet
EndChar

StartChar: circumflex
Encoding: 710 710 50
Width: 621
VWidth: 0
Flags: HW
PickledData: "(dp1
S'org.robofab.postScriptHintData'
p2
(dp3
s."
LayerCount: 2
Fore
SplineSet
244 1406 m 1
 459 1438 l 1
 411 1438 l 1
 489 1356 l 1
 391 1236 l 1
 137 1378 l 1
 134 1406 l 1
 244 1406 l 1
EndSplineSet
EndChar

StartChar: d
Encoding: 100 100 51
Width: 1198
VWidth: 0
Flags: HW
PickledData: "(dp1
S'org.robofab.postScriptHintData'
p2
(dp3
s."
LayerCount: 2
Fore
SplineSet
402 1 m 2
 188 1 114 170 114 420 c 2
 114 714 l 2
 114 975 226 1093 522 1093 c 0
 630 1093 808 1066 808 1066 c 1
 808 1343 l 1
 1042 1343 l 1
 1042 1 l 1
 402 1 l 2
348 408 m 2
 348 209 348 187 598 187 c 0
 608 187 808 190 808 192 c 2
 808 874 l 2
 808 878 644 894 525 894 c 0
 383 894 348 884 348 679 c 2
 348 408 l 2
EndSplineSet
EndChar

StartChar: dieresis
Encoding: 168 168 52
Width: 554
VWidth: 0
Flags: HW
PickledData: "(dp1
S'org.robofab.postScriptHintData'
p2
(dp3
s."
LayerCount: 2
Fore
SplineSet
151 1273 m 1
 151 1508 l 1
 395 1508 l 1
 395 1273 l 1
 151 1273 l 1
169 1273 m 1
 169 1508 l 1
 412 1508 l 1
 412 1273 l 1
 169 1273 l 1
EndSplineSet
EndChar

StartChar: divide
Encoding: 247 247 53
Width: 773
VWidth: 0
Flags: HW
PickledData: "(dp1
S'org.robofab.postScriptHintData'
p2
(dp3
s."
LayerCount: 2
Fore
SplineSet
508 480 m 0
 510 480 511 480 511 479 c 0
 511 476 311 450 311 418 c 0
 311 411 310 408 308 408 c 0
 300 408 277 454 249 454 c 0
 247 454 245 454 245 454 c 1
 245 457 447 483 447 515 c 0
 447 522 448 524 450 524 c 0
 458 524 481 480 508 480 c 0
94 481 m 1
 94 550 l 1
 663 550 l 1
 663 481 l 1
 94 481 l 1
442 1031 m 0
 447 1031 449 1030 449 1029 c 0
 449 1022 378 996 378 968 c 0
 378 963 377 961 376 961 c 0
 370 961 346 1032 316 1032 c 0
 311 1032 309 1033 309 1034 c 0
 309 1040 380 1064 380 1094 c 0
 380 1099 381 1101 382 1101 c 0
 388 1101 412 1031 442 1031 c 0
EndSplineSet
EndChar

StartChar: dotaccent
Encoding: 729 729 54
Width: 541
VWidth: 0
Flags: HW
PickledData: "(dp1
S'org.robofab.postScriptHintData'
p2
(dp3
s."
LayerCount: 2
Fore
SplineSet
151 1270 m 1
 151 1511 l 1
 399 1511 l 1
 399 1270 l 1
 151 1270 l 1
EndSplineSet
EndChar

StartChar: dotlessi
Encoding: 305 305 55
Width: 284
VWidth: 0
Flags: HW
PickledData: "(dp1
S'org.robofab.postScriptHintData'
p2
(dp3
s."
LayerCount: 2
Fore
SplineSet
103 631 m 1
 159 631 l 1
 159 501 l 1
 103 501 l 1
 103 631 l 1
EndSplineSet
EndChar

StartChar: e
Encoding: 101 101 56
Width: 1146
VWidth: 0
Flags: W
PickledData: "(dp1
S'org.robofab.postScriptHintData'
p2
(dp3
s."
HStem: -24 178<428.603 885.797> 444 145<337 831> 826 164<413.549 759.478>
VStem: 104 233<245.578 444 589 751.07> 831 196<591.109 752.737>
LayerCount: 2
Fore
SplineSet
988 46 m 1
 889 3 775 -24 629 -24 c 0
 297 -24 104 86 104 505 c 0
 104 881 306 990 587 990 c 0
 760 990 1027 917 1027 652 c 0
 1027 602 1024 546 1012 444 c 1
 337 444 l 1
 337 306 337 154 629 154 c 0
 811 154 930 217 930 217 c 1
 988 46 l 1
337 589 m 1
 831 589 l 1
 831 764 761 826 586 826 c 0
 421 826 337 759 337 589 c 1
EndSplineSet
EndChar

StartChar: emdash
Encoding: 8212 8212 57
Width: 1901
VWidth: 0
Flags: HW
PickledData: "(dp1
S'org.robofab.postScriptHintData'
p2
(dp3
s."
LayerCount: 2
Fore
SplineSet
137 657 m 1
 1759 657 l 1
 1759 500 l 1
 137 500 l 1
 137 657 l 1
EndSplineSet
EndChar

StartChar: endash
Encoding: 8211 8211 58
Width: 1090
VWidth: 0
Flags: HW
PickledData: "(dp1
S'org.robofab.postScriptHintData'
p2
(dp3
s."
LayerCount: 2
Fore
SplineSet
137 500 m 1
 137 657 l 1
 948 657 l 1
 948 500 l 1
 137 500 l 1
EndSplineSet
EndChar

StartChar: equal
Encoding: 61 61 59
Width: 761
VWidth: 0
Flags: HW
PickledData: "(dp1
S'org.robofab.postScriptHintData'
p2
(dp3
s."
LayerCount: 2
Fore
SplineSet
142 488 m 1
 142 528 l 1
 621 528 l 1
 621 488 l 1
 142 488 l 1
142 866 m 1
 142 903 l 1
 621 903 l 1
 621 866 l 1
 142 866 l 1
EndSplineSet
EndChar

StartChar: fraction
Encoding: 8260 8260 63
Width: 946
VWidth: 0
Flags: HW
PickledData: "(dp1
S'org.robofab.postScriptHintData'
p2
(dp3
s."
LayerCount: 2
Fore
SplineSet
718 631 m 1
 65 -19 l 1
 211 724 l 1
 864 1374 l 1
 718 631 l 1
EndSplineSet
EndChar

StartChar: g
Encoding: 103 103 65
Width: 1189
VWidth: 0
Flags: HW
PickledData: "(dp1
S'org.robofab.postScriptHintData'
p2
(dp3
s."
LayerCount: 2
Fore
SplineSet
467 -393 m 0
 271 -393 186 -326 174 -157 c 1
 171 -155 168 -121 165 -119 c 1
 373 -73 l 1
 376 -75 378 -128 381 -129 c 1
 389 -209 397 -211 520 -211 c 0
 805 -211 814 -202 813 -14 c 2
 812 104 l 1
 731 56 619 19 496 19 c 0
 219 19 119 139 119 401 c 2
 119 785 l 2
 119 1001 219 1093 406 1093 c 0
 417 1093 590 1088 594 1070 c 1
 753 1091 l 1
 919 1091 1047 1011 1047 833 c 2
 1048 -11 l 2
 1048 -402 861 -393 467 -393 c 0
583 895 m 0
 355 895 354 887 354 786 c 2
 354 432 l 2
 354 229 410 217 547 217 c 0
 657 217 812 246 812 258 c 2
 812 786 l 2
 812 886 809 895 583 895 c 0
EndSplineSet
EndChar

StartChar: grave
Encoding: 96 96 67
Width: 420
VWidth: 0
Flags: HW
PickledData: "(dp1
S'org.robofab.postScriptHintData'
p2
(dp3
s."
LayerCount: 2
Fore
SplineSet
207 1260 m 1
 145 1406 l 1
 182 1516 l 1
 285 1422 l 1
 207 1260 l 1
EndSplineSet
EndChar

StartChar: greater
Encoding: 62 62 68
Width: 1115
VWidth: 0
Flags: HW
PickledData: "(dp1
S'org.robofab.postScriptHintData'
p2
(dp3
s."
LayerCount: 2
Fore
SplineSet
1013 606 m 1
 773 413 l 1
 91 286 l 1
 234 429 l 1
 684 750 l 1
 91 1141 l 1
 330 1061 l 1
 1013 606 l 1
EndSplineSet
EndChar

StartChar: h
Encoding: 104 104 69
Width: 1214
VWidth: 0
Flags: HW
PickledData: "(dp1
S'org.robofab.postScriptHintData'
p2
(dp3
s."
LayerCount: 2
Fore
SplineSet
267 1341 m 0
 326 1341 384 1316 384 1254 c 2
 384 0 l 1
 150 0 l 1
 150 1254 l 2
 150 1316 208 1341 267 1341 c 0
384 794 m 1
 353 794 343 822 343 855 c 0
 343 904 364 966 364 966 c 1
 471 1038 591 1069 701 1069 c 0
 905 1069 1076 962 1076 812 c 2
 1076 0 l 1
 843 0 l 1
 843 798 l 2
 843 864 767 892 675 892 c 0
 567 892 438 854 384 794 c 1
EndSplineSet
EndChar

StartChar: hungarumlaut
Encoding: 733 733 70
Width: 474
VWidth: 0
Flags: HW
PickledData: "(dp1
S'org.robofab.postScriptHintData'
p2
(dp3
s."
LayerCount: 2
Fore
SplineSet
160 1087 m 1
 187 1313 l 1
 354 1515 l 1
 312 1267 l 1
 160 1087 l 1
137 1087 m 1
 153 1313 l 1
 337 1515 l 1
 307 1267 l 1
 137 1087 l 1
EndSplineSet
EndChar

StartChar: hyphen
Encoding: 45 45 71
Width: 757
VWidth: 0
Flags: HW
PickledData: "(dp1
S'org.robofab.postScriptHintData'
p2
(dp3
s."
LayerCount: 2
Fore
SplineSet
138 487 m 1
 138 672 l 1
 614 672 l 1
 614 487 l 1
 138 487 l 1
EndSplineSet
EndChar

StartChar: i
Encoding: 105 105 72
Width: 537
VWidth: 0
Flags: HW
PickledData: "(dp1
S'org.robofab.postScriptHintData'
p2
(dp3
s."
LayerCount: 2
Fore
SplineSet
381 0 m 1
 147 0 l 1
 147 954 l 1
 381 954 l 1
 381 0 l 1
122 1245 m 0
 122 1321 192 1351 264 1351 c 0
 337 1351 407 1321 407 1245 c 0
 407 1170 337 1140 264 1140 c 0
 192 1140 122 1170 122 1245 c 0
EndSplineSet
EndChar

StartChar: integral
Encoding: 8747 8747 73
Width: 524
VWidth: 0
Flags: HW
PickledData: "(dp1
S'org.robofab.postScriptHintData'
p2
(dp3
s."
LayerCount: 2
Fore
SplineSet
223 381 m 1
 216 390 213 402 213 414 c 0
 213 431 219 448 227 457 c 1
 219 485 207 494 186 494 c 0
 156 494 133 534 124 534 c 0
 122 534 108 496 108 485 c 0
 108 470 115 461 126 461 c 0
 185 461 226 555 238 885 c 1
 238 575 242 599 242 591 c 1
 246 816 268 923 289 923 c 0
 294 923 295 845 350 845 c 0
 381 845 401 802 409 802 c 0
 411 802 424 842 424 852 c 0
 424 868 417 878 406 878 c 0
 331 878 296 748 291 337 c 0
 290 254 286 225 281 225 c 0
 270 225 251 381 223 381 c 1
EndSplineSet
EndChar

StartChar: k
Encoding: 107 107 74
Width: 1225
VWidth: 0
Flags: HW
PickledData: "(dp1
S'org.robofab.postScriptHintData'
p2
(dp3
s."
LayerCount: 2
Fore
SplineSet
853 1046 m 1
 1141 1046 l 1
 675 555 l 1
 1187 0 l 1
 890 0 l 1
 394 555 l 1
 853 1046 l 1
267 1351 m 0
 326 1351 384 1326 384 1264 c 2
 384 0 l 1
 150 0 l 1
 150 1264 l 2
 150 1326 208 1351 267 1351 c 0
EndSplineSet
EndChar

StartChar: l
Encoding: 108 108 75
Width: 537
VWidth: 0
Flags: HW
PickledData: "(dp1
S'org.robofab.postScriptHintData'
p2
(dp3
s."
LayerCount: 2
Fore
SplineSet
148 1364 m 2
 148 1426 206 1451 265 1451 c 0
 324 1451 382 1426 382 1364 c 2
 382 86 l 2
 382 28 323 0 265 0 c 0
 206 0 148 28 148 86 c 2
 148 1364 l 2
EndSplineSet
EndChar

StartChar: less
Encoding: 60 60 76
Width: 1086
VWidth: 0
Flags: HW
PickledData: "(dp1
S'org.robofab.postScriptHintData'
p2
(dp3
s."
LayerCount: 2
Fore
SplineSet
707 823 m 1
 114 757 l 1
 946 661 l 1
 946 447 l 1
 120 644 l 1
 263 612 l 1
 946 742 l 1
 707 823 l 1
EndSplineSet
EndChar

StartChar: logicalnot
Encoding: 172 172 77
Width: 1217
VWidth: 0
Flags: HW
PickledData: "(dp1
S'org.robofab.postScriptHintData'
p2
(dp3
s."
LayerCount: 2
Fore
SplineSet
788 909 m 1
 1095 618 l 1
 1038 391 l 1
 908 624 l 1
 269 776 l 1
 93 834 l 1
 788 909 l 1
EndSplineSet
EndChar

StartChar: m
Encoding: 109 109 78
Width: 1755
VWidth: 0
Flags: HW
PickledData: "(dp1
S'org.robofab.postScriptHintData'
p2
(dp3
s."
LayerCount: 2
Fore
SplineSet
993 81 m 2
 993 27 934 1 876 1 c 0
 817 1 759 27 759 81 c 2
 759 798 l 2
 759 864 697 892 621 892 c 0
 529 892 416 854 370 794 c 1
 370 81 l 2
 370 27 311 1 253 1 c 0
 194 1 136 27 136 81 c 2
 136 959 l 2
 136 1021 189 1046 243 1046 c 0
 296 1046 350 1028 350 966 c 1
 445 1038 549 1069 647 1069 c 0
 836 1069 993 962 993 812 c 2
 993 81 l 2
1615 81 m 2
 1615 27 1556 1 1498 1 c 0
 1439 1 1381 27 1381 81 c 2
 1381 798 l 2
 1381 864 1319 892 1243 892 c 0
 1151 892 1039 854 993 794 c 1
 922 946 l 1
 1032 1032 1156 1069 1269 1069 c 0
 1458 1069 1615 962 1615 812 c 2
 1615 81 l 2
EndSplineSet
EndChar

StartChar: middot
Encoding: 183 183 79
Width: 408
VWidth: 0
Flags: HW
PickledData: "(dp1
S'org.robofab.postScriptHintData'
p2
(dp3
s."
LayerCount: 2
Fore
SplineSet
214 610 m 0
 214 643 125 670 125 677 c 0
 125 678 127 679 133 679 c 0
 164 679 190 745 197 745 c 0
 199 745 200 742 200 736 c 0
 200 703 290 675 290 668 c 0
 290 667 288 667 283 667 c 0
 252 667 224 602 216 602 c 0
 215 602 214 604 214 610 c 0
EndSplineSet
EndChar

StartChar: minus
Encoding: 8722 8722 80
Width: 750
VWidth: 0
Flags: HW
PickledData: "(dp1
S'org.robofab.postScriptHintData'
p2
(dp3
s."
LayerCount: 2
Fore
SplineSet
137 596 m 1
 137 636 l 1
 614 636 l 1
 614 596 l 1
 137 596 l 1
EndSplineSet
EndChar

StartChar: mu
Encoding: 181 181 81
Width: 1326
VWidth: 0
Flags: HW
PickledData: "(dp1
S'org.robofab.postScriptHintData'
p2
(dp3
s."
LayerCount: 2
Fore
SplineSet
531 1065 m 1
 406 473 l 2
 395 421 390 377 390 334 c 0
 390 178 470 90 615 90 c 0
 782 90 906 237 963 508 c 1
 1084 1065 l 1
 1223 1065 l 1
 1059 295 l 2
 1043 222 1037 186 1037 162 c 0
 1037 118 1060 96 1105 96 c 0
 1114 96 1128 97 1141 98 c 1
 1121 -12 l 1
 1096 -19 1066 -23 1035 -23 c 0
 942 -23 898 24 898 123 c 2
 898 137 l 1
 842 34 734 -25 599 -25 c 0
 476 -25 382 30 330 131 c 1
 216 -426 l 1
 76 -426 l 1
 392 1065 l 1
 531 1065 l 1
EndSplineSet
EndChar

StartChar: multiply
Encoding: 215 215 82
Width: 741
VWidth: 0
Flags: HW
PickledData: "(dp1
S'org.robofab.postScriptHintData'
p2
(dp3
s."
LayerCount: 2
Fore
SplineSet
83 867 m 1
 105 765 l 1
 452 554 l 1
 111 338 l 1
 214 359 l 1
 424 707 l 1
 641 366 l 1
 620 468 l 1
 272 678 l 1
 612 895 l 1
 510 874 l 1
 300 527 l 1
 83 867 l 1
EndSplineSet
EndChar

StartChar: n
Encoding: 110 110 83
Width: 1262
VWidth: 0
Flags: W
PickledData: "(dp1
S'org.robofab.postScriptHintData'
p2
(dp3
s."
HStem: -1 21G<138 372 891 1124> 816 174<477.967 846.87>
VStem: 138 234<-1 740.66> 891 233<-1 767.749>
LayerCount: 2
Fore
SplineSet
138 954 m 1
 297 954 304 954 335 874 c 1
 451 953 600 990 719 990 c 0
 938 990 1124 864 1124 690 c 2
 1124 -1 l 1
 891 -1 l 1
 891 676 l 2
 891 770 804 816 697 816 c 0
 577 816 432 772 372 706 c 1
 372 -1 l 1
 138 -1 l 1
 138 954 l 1
EndSplineSet
EndChar

StartChar: o
Encoding: 111 111 85
Width: 1326
VWidth: 0
Flags: W
PickledData: "(dp1
S'org.robofab.postScriptHintData'
p2
(dp3
s."
HStem: -35 178<484.705 824.88> 819 171<483.557 824.396>
VStem: 99 225<305.81 658.27> 986 225<305.81 658.048>
LayerCount: 2
Fore
SplineSet
99 484 m 0
 99 138 375 -35 655 -35 c 0
 934 -35 1211 138 1211 484 c 0
 1211 820 934 990 655 990 c 0
 375 990 99 820 99 484 c 0
324 483 m 0
 324 709 481 819 653 819 c 0
 823 819 986 708 986 483 c 0
 986 257 824 143 655 143 c 0
 485 143 324 257 324 483 c 0
EndSplineSet
EndChar

StartChar: ogonek
Encoding: 731 731 86
Width: 586
VWidth: 0
Flags: HW
PickledData: "(dp1
S'org.robofab.postScriptHintData'
p2
(dp3
s."
LayerCount: 2
Fore
SplineSet
425 -248 m 1
 344 -309 292 -354 263 -395 c 1
 242 -404 224 -408 208 -408 c 0
 177 -408 158 -392 158 -364 c 0
 158 -351 163 -335 172 -316 c 1
 172 -264 256 -218 330 -177 c 1
 419 -251 l 1
 372 -309 307 -341 307 -369 c 1
 277 -380 255 -385 240 -385 c 0
 222 -385 213 -378 213 -363 c 0
 213 -353 218 -339 226 -321 c 1
 239 -270 279 -230 383 -155 c 1
 425 -248 l 1
EndSplineSet
EndChar

StartChar: onesuperior
Encoding: 185 185 87
Width: 506
VWidth: 0
Flags: HW
PickledData: "(dp1
S'org.robofab.postScriptHintData'
p2
(dp3
s."
LayerCount: 2
Fore
SplineSet
250 422 m 1
 250 956 l 1
 99 956 l 1
 99 1020 l 1
 357 1061 l 1
 357 422 l 1
 250 422 l 1
EndSplineSet
EndChar

StartChar: overscore
Encoding: 175 175 88
Width: 831
VWidth: 0
Flags: HW
PickledData: "(dp1
S'org.robofab.postScriptHintData'
p2
(dp3
s."
LayerCount: 2
Fore
SplineSet
151 1292 m 1
 151 1468 l 1
 689 1468 l 1
 689 1292 l 1
 151 1292 l 1
EndSplineSet
EndChar

StartChar: p
Encoding: 112 112 89
Width: 1272
VWidth: 0
Flags: HW
PickledData: "(dp1
S'org.robofab.postScriptHintData'
p2
(dp3
s."
LayerCount: 2
Fore
SplineSet
372 -291 m 2
 372 -352 313 -382 255 -382 c 0
 196 -382 138 -352 138 -291 c 2
 138 959 l 2
 138 1021 191 1046 245 1046 c 0
 298 1046 352 1028 352 966 c 1
 456 1038 572 1072 679 1072 c 0
 1005 1072 1157 796 1157 522 c 0
 1157 192 934 -24 625 -24 c 0
 546 -24 461 -9 372 21 c 1
 372 -291 l 2
939 527 m 0
 939 709 845 897 662 897 c 0
 572 897 470 872 372 819 c 1
 372 194 l 1
 450 168 528 153 601 153 c 0
 789 153 939 253 939 527 c 0
EndSplineSet
EndChar

StartChar: plus
Encoding: 43 43 90
Width: 793
VWidth: 0
Flags: HW
PickledData: "(dp1
S'org.robofab.postScriptHintData'
p2
(dp3
s."
LayerCount: 2
Fore
SplineSet
324 922 m 1
 324 508 l 1
 102 508 l 1
 102 539 l 1
 509 539 l 1
 509 312 l 1
 478 312 l 1
 478 724 l 1
 699 724 l 1
 699 694 l 1
 294 694 l 1
 294 922 l 1
 324 922 l 1
EndSplineSet
EndChar

StartChar: product
Encoding: 8719 8719 91
Width: 1232
VWidth: 0
Flags: HW
PickledData: "(dp1
S'org.robofab.postScriptHintData'
p2
(dp3
s."
LayerCount: 2
Fore
SplineSet
451 1524 m 1
 1139 854 l 1
 992 -227 l 1
 895 315 l 1
 825 1311 l 1
 331 768 l 1
 184 -227 l 1
 87 442 l 1
 451 1524 l 1
EndSplineSet
EndChar

StartChar: quotedbl
Encoding: 34 34 92
Width: 437
VWidth: 0
Flags: HW
PickledData: "(dp1
S'org.robofab.postScriptHintData'
p2
(dp3
s."
LayerCount: 2
Fore
SplineSet
288 1234 m 1
 214 913 l 1
 112 1180 l 1
 261 1501 l 1
 288 1234 l 1
314 1234 m 1
 261 913 l 1
 140 1180 l 1
 288 1501 l 1
 314 1234 l 1
EndSplineSet
EndChar

StartChar: quotesingle
Encoding: 39 39 93
Width: 377
VWidth: 0
Flags: HW
PickledData: "(dp1
S'org.robofab.postScriptHintData'
p2
(dp3
s."
LayerCount: 2
Fore
SplineSet
205 1234 m 1
 237 1180 l 1
 148 1180 l 1
 190 1234 l 1
 205 1234 l 1
EndSplineSet
EndChar

StartChar: s
Encoding: 115 115 95
Width: 1098
VWidth: 0
Flags: HW
PickledData: "(dp1
S'org.robofab.postScriptHintData'
p2
(dp3
s."
LayerCount: 2
Fore
SplineSet
344 360 m 1
 344 282 l 2
 344 191 350 190 534 190 c 0
 758 190 759 195 759 290 c 0
 759 397 758 401 605 434 c 2
 362 486 l 1
 156 527 116 586 116 800 c 0
 116 1061 243 1072 539 1072 c 0
 557 1072 708 1068 717 1059 c 1
 922 1050 954 995 954 815 c 2
 954 780 l 1
 746 760 l 1
 746 825 l 2
 746 868 744 878 554 878 c 0
 339 878 335 875 335 793 c 0
 335 715 338 710 510 683 c 1
 735 635 l 2
 947 590 972 545 972 281 c 0
 972 103 919 9 735 0 c 1
 726 -5 564 -7 551 -7 c 0
 533 -7 368 -3 359 6 c 1
 166 15 124 92 124 276 c 2
 124 342 l 1
 344 360 l 1
EndSplineSet
EndChar

StartChar: seven
Encoding: 55 55 97
Width: 1159
VWidth: 0
Flags: HW
PickledData: "(dp1
S'org.robofab.postScriptHintData'
p2
(dp3
s."
LayerCount: 2
Fore
SplineSet
286 -10 m 1
 297 124 693 788 746 906 c 0
 749 913 751 920 751 927 c 0
 751 1028 368 1049 372 1067 c 1
 163 924 l 1
 71 1074 l 1
 444 1282 l 1
 1084 1176 l 1
 1076 1121 1037 979 998 892 c 0
 958 804 581 147 571 -10 c 1
 286 -10 l 1
EndSplineSet
EndChar

StartChar: sfthyphen
Encoding: 173 173 98
Width: 725
VWidth: 0
Flags: HW
PickledData: "(dp1
S'org.robofab.postScriptHintData'
p2
(dp3
s."
LayerCount: 2
Fore
SplineSet
137 471 m 1
 137 621 l 1
 583 621 l 1
 583 471 l 1
 137 471 l 1
EndSplineSet
EndChar

StartChar: slash
Encoding: 47 47 99
Width: 525
VWidth: 0
Flags: HW
PickledData: "(dp1
S'org.robofab.postScriptHintData'
p2
(dp3
s."
LayerCount: 2
Fore
SplineSet
60 -19 m 1
 214 631 l 1
 447 1374 l 1
 291 724 l 1
 60 -19 l 1
EndSplineSet
EndChar

StartChar: summation
Encoding: 8721 8721 101
Width: 1096
VWidth: 0
Flags: HW
PickledData: "(dp1
S'org.robofab.postScriptHintData'
p2
(dp3
s."
LayerCount: 2
Fore
SplineSet
163 1169 m 1
 783 1370 l 1
 783 1402 l 1
 517 1402 l 1
 925 831 l 1
 332 360 l 1
 1034 170 l 1
 944 -101 l 1
 376 -101 l 1
 376 -151 l 1
 485 325 l 1
 74 887 l 1
 163 1169 l 1
EndSplineSet
EndChar

StartChar: t
Encoding: 116 116 102
Width: 774
VWidth: 0
Flags: HW
PickledData: "(dp1
S'org.robofab.postScriptHintData'
p2
(dp3
s."
LayerCount: 2
Fore
SplineSet
625 -9 m 0
 613 -10 595 -11 575 -11 c 0
 309 -11 221 75 221 354 c 2
 221 902 l 1
 74 902 l 1
 74 1062 l 1
 221 1062 l 1
 221 1303 l 2
 221 1365 279 1390 338 1390 c 0
 397 1390 454 1365 454 1303 c 2
 454 1062 l 1
 637 1062 l 1
 637 902 l 1
 454 902 l 1
 454 382 l 2
 454 188 504 188 625 188 c 0
 674 188 699 140 699 91 c 0
 699 43 675 -5 625 -9 c 0
EndSplineSet
EndChar

StartChar: threesuperior
Encoding: 179 179 103
Width: 955
VWidth: 0
Flags: HW
PickledData: "(dp1
S'org.robofab.postScriptHintData'
p2
(dp3
s."
LayerCount: 2
Fore
SplineSet
279 422 m 2
 158 422 129 449 129 547 c 2
 129 598 l 1
 240 621 l 1
 240 510 l 1
 643 510 l 2
 694 510 705 520 705 565 c 2
 705 651 l 2
 705 698 692 709 643 709 c 2
 395 709 l 1
 395 788 l 1
 616 788 l 2
 665 788 678 801 678 862 c 2
 678 899 l 2
 678 958 667 971 616 971 c 2
 244 971 l 1
 244 872 l 1
 137 893 l 1
 137 932 l 2
 137 1030 171 1057 289 1057 c 2
 643 1057 l 2
 761 1057 793 1026 793 932 c 2
 793 874 l 2
 793 802 764 770 687 754 c 1
 779 741 817 704 817 625 c 2
 817 559 l 2
 817 455 778 422 659 422 c 2
 279 422 l 2
EndSplineSet
EndChar

StartChar: tilde
Encoding: 732 732 104
Width: 581
VWidth: 0
Flags: HW
PickledData: "(dp1
S'org.robofab.postScriptHintData'
p2
(dp3
s."
LayerCount: 2
Fore
SplineSet
363 1442 m 0
 362 1442 362 1442 362 1442 c 1
 362 1440 392 1432 392 1415 c 0
 392 1414 391 1412 391 1411 c 0
 372 1338 331 1294 274 1294 c 0
 261 1294 156 1340 143 1344 c 1
 173 1416 163 1470 216 1470 c 1
 216 1470 217 1468 219 1462 c 1
 204 1462 202 1453 202 1440 c 0
 202 1436 202 1432 202 1427 c 0
 202 1419 202 1410 198 1402 c 1
 199 1401 200 1400 200 1399 c 0
 200 1395 177 1391 177 1391 c 1
 205 1461 253 1510 319 1532 c 1
 332 1532 441 1508 451 1503 c 1
 419 1415 427 1359 369 1359 c 0
 362 1359 358 1368 353 1379 c 1
 361 1386 366 1401 366 1418 c 0
 366 1425 365 1433 363 1442 c 0
EndSplineSet
EndChar

StartChar: twosuperior
Encoding: 178 178 105
Width: 946
VWidth: 0
Flags: HW
PickledData: "(dp1
S'org.robofab.postScriptHintData'
p2
(dp3
s."
LayerCount: 2
Fore
SplineSet
151 932 m 2
 151 1029 185 1057 302 1057 c 2
 638 1057 l 2
 755 1057 788 1029 788 932 c 2
 788 893 l 2
 788 828 773 804 702 764 c 2
 251 510 l 1
 708 510 l 1
 708 629 l 1
 818 596 l 1
 818 547 l 2
 818 453 791 422 667 422 c 2
 118 422 l 1
 118 461 l 2
 118 518 141 542 200 578 c 1
 673 848 l 1
 673 971 l 1
 261 971 l 1
 261 823 l 1
 151 850 l 1
 151 932 l 2
EndSplineSet
EndChar

StartChar: u
Encoding: 117 117 106
Width: 1199
VWidth: 0
Flags: HW
PickledData: "(dp1
S'org.robofab.postScriptHintData'
p2
(dp3
s."
LayerCount: 2
Fore
SplineSet
1054 86 m 2
 1054 24 1001 -1 947 -1 c 0
 894 -1 840 17 840 79 c 1
 730 7 606 -24 493 -24 c 0
 294 -24 128 95 128 263 c 2
 128 964 l 2
 128 1018 186 1044 245 1044 c 0
 303 1044 361 1018 361 964 c 2
 361 317 l 2
 361 202 437 153 529 153 c 0
 637 153 766 191 820 251 c 1
 820 964 l 2
 820 1018 879 1044 937 1044 c 0
 996 1044 1054 1018 1054 964 c 2
 1054 86 l 2
EndSplineSet
EndChar

StartChar: underscore
Encoding: 95 95 107
Width: 652
VWidth: 0
Flags: HW
PickledData: "(dp1
S'org.robofab.postScriptHintData'
p2
(dp3
s."
LayerCount: 2
Fore
SplineSet
165 -320 m 1
 165 -280 l 1
 484 -280 l 1
 484 -320 l 1
 165 -320 l 1
EndSplineSet
EndChar

StartChar: v
Encoding: 118 118 108
Width: 1187
VWidth: 0
Flags: HW
PickledData: "(dp1
S'org.robofab.postScriptHintData'
p2
(dp3
s."
LayerCount: 2
Fore
SplineSet
338 1071 m 1
 595 323 l 1
 845 1071 l 1
 1114 1071 l 1
 734 0 l 1
 454 0 l 1
 61 1071 l 1
 338 1071 l 1
EndSplineSet
EndChar

StartChar: w
Encoding: 119 119 109
Width: 1686
VWidth: 0
Flags: HW
PickledData: "(dp1
S'org.robofab.postScriptHintData'
p2
(dp3
s."
LayerCount: 2
Fore
SplineSet
373 0 m 1
 68 1071 l 1
 335 1071 l 1
 523 372 l 1
 744 1071 l 1
 949 1071 l 1
 1161 372 l 1
 1350 1071 l 1
 1607 1071 l 1
 1302 0 l 1
 1050 0 l 1
 842 674 l 1
 631 0 l 1
 373 0 l 1
EndSplineSet
EndChar

StartChar: x
Encoding: 120 120 110
Width: 1077
VWidth: 0
Flags: HW
PickledData: "(dp1
S'org.robofab.postScriptHintData'
p2
(dp3
s."
LayerCount: 2
Fore
SplineSet
73 0 m 1
 382 564 l 1
 84 1069 l 1
 331 1069 l 1
 538 684 l 1
 734 1069 l 1
 966 1069 l 1
 693 571 l 1
 1026 0 l 1
 776 0 l 1
 535 446 l 1
 309 0 l 1
 73 0 l 1
EndSplineSet
EndChar

StartChar: yen
Encoding: 165 165 113
Width: 1206
VWidth: 0
Flags: HW
PickledData: "(dp1
S'org.robofab.postScriptHintData'
p2
(dp3
s."
LayerCount: 2
Fore
SplineSet
459 200 m 1
 459 507 l 1
 212 507 l 1
 113 940 l 1
 546 940 l 1
 498 811 l 1
 342 1038 l 1
 488 1096 l 1
 535 720 l 1
 409 906 l 1
 529 812 l 1
 707 537 l 1
 932 784 l 1
 1107 784 l 1
 944 500 l 1
 1031 500 l 1
 1031 368 l 1
 697 368 l 1
 609 344 l 1
 833 344 l 1
 833 384 l 1
 609 384 l 1
 609 200 l 1
 459 200 l 1
EndSplineSet
EndChar

StartChar: z
Encoding: 122 122 114
Width: 1084
VWidth: 0
Flags: HW
PickledData: "(dp1
S'org.robofab.postScriptHintData'
p2
(dp3
s."
LayerCount: 2
Fore
SplineSet
98 0 m 1
 98 160 l 1
 652 931 l 1
 150 931 l 1
 150 1134 l 1
 969 1134 l 1
 969 965 l 1
 417 203 l 1
 959 203 l 1
 959 0 l 1
 98 0 l 1
EndSplineSet
EndChar
